<?xml version="1.0" standalone="no"?>
<!DOCTYPE svg PUBLIC "-//W3C//DTD SVG 20010904//EN"
 "http://www.w3.org/TR/2001/REC-SVG-20010904/DTD/svg10.dtd">
<svg version="1.0" xmlns="http://www.w3.org/2000/svg"
 width="225.000000pt" height="225.000000pt" viewBox="0 0 225.000000 225.000000"
 preserveAspectRatio="xMidYMid meet">

<g transform="translate(0.000000,225.000000) scale(0.100000,-0.100000)"
fill="#000000" stroke="none">
<path d="M170 1075 l0 -925 920 0 920 0 0 925 0 925 -920 0 -920 0 0 -925z
m1155 722 c115 -38 198 -90 296 -187 129 -128 200 -271 220 -445 53 -470 -320
-868 -791 -842 -124 7 -198 26 -297 74 -338 167 -502 567 -381 928 66 195 258
392 448 461 98 35 163 44 295 40 106 -3 145 -8 210 -29z"/>
<path d="M726 1444 c-38 -37 -11 -114 39 -114 34 0 68 32 68 63 0 56 -70 89
-107 51z"/>
<path d="M725 1287 c-9 -21 42 -227 61 -248 10 -11 40 -33 68 -49 28 -16 57
-34 64 -38 14 -9 65 -192 56 -201 -2 -3 -10 1 -16 7 -17 17 -49 15 -77 -4 -21
-15 -26 -15 -63 2 -37 17 -41 17 -71 1 -18 -9 -45 -16 -62 -14 -39 3 -40 -21
-3 -42 24 -14 30 -14 64 2 36 17 39 18 70 1 31 -17 34 -17 71 0 35 16 41 16
68 2 17 -9 35 -16 40 -16 6 0 23 7 40 16 27 14 33 14 68 -2 36 -16 40 -16 74
0 35 16 38 16 69 0 31 -17 34 -17 71 0 38 17 41 17 77 0 34 -17 40 -17 64 -3
39 22 35 44 -8 44 -19 0 -47 7 -62 14 -24 12 -33 12 -66 -3 -37 -17 -40 -17
-76 1 -36 17 -39 17 -68 0 -30 -17 -33 -17 -75 0 -48 20 -44 11 -83 178 l-21
90 -53 32 c-51 31 -54 36 -70 97 -25 102 -33 95 107 98 114 3 122 4 122 23 0
19 -8 20 -188 23 -146 2 -189 0 -192 -11z"/>
<path d="M1228 1263 c56 -2 148 -2 205 0 56 1 10 3 -103 3 -113 0 -159 -2
-102 -3z"/>
<path d="M2241 1194 c0 -11 3 -14 6 -6 3 7 2 16 -1 19 -3 4 -6 -2 -5 -13z"/>
</g>
</svg>
